<svg xmlns="http://www.w3.org/2000/svg" width="811.841" height="240" viewBox="0 0 811.841 240"><path d="M99.615 52.649h6.5V23.767h-6.5V52.65zm29.17-12.298c0 5.142-1.882 7.542-5.302 7.542-3.292 0-5.217-2.529-5.217-7.542V23.767h-6.5V39.88c0 9.17 4.234 13.242 11.503 13.242 7.526 0 12.015-4.243 12.015-13.156V23.767h-6.499v16.584zm9.978-11.099h7.782v23.397h6.5V29.252h7.868v-5.485h-22.15v5.485zm83.837 5.614h-10.733V23.767h-6.5V52.65h6.5V40.565H222.6v12.084h6.499V23.767H222.6v11.099zm30.889 5.399c0-4.97-2.18-9.084-9.152-9.084-3.805 0-6.67 1.072-8.124 1.885l1.198 4.2c1.368-.858 3.635-1.585 5.772-1.585 3.207 0 3.807 1.585 3.807 2.742v.257c-7.399 0-12.273 2.57-12.273 8.012 0 3.344 2.523 6.429 6.756 6.429 2.48 0 4.619-.9 5.987-2.572h.128l.384 2.1h5.86c-.257-1.158-.343-3.085-.343-5.056v-7.328zm-6.286 4.756c0 .386-.043.772-.129 1.115-.427 1.328-1.796 2.4-3.378 2.4-1.453 0-2.566-.815-2.566-2.486 0-2.486 2.652-3.3 6.073-3.3v2.271zm27.08-10.798h-.085c-1.069-1.757-2.865-3-5.73-3-5.174 0-9.493 4.286-9.493 11.056 0 6 3.678 10.198 8.851 10.198 2.396 0 4.405-.986 5.644-2.7h.086v1.329c0 3.9-2.352 5.528-5.43 5.528-2.48 0-4.746-.814-6.073-1.585l-1.282 4.97c1.882 1.03 4.746 1.586 7.526 1.586 3.078 0 6.2-.6 8.467-2.572 2.394-2.098 3.207-5.399 3.207-9.426V37.95c0-3.128.084-4.885.17-6.256h-5.644l-.213 2.528zm-.813 9.084c0 .558-.043 1.244-.213 1.757-.428 1.5-1.753 2.614-3.464 2.614-2.694 0-4.233-2.442-4.233-5.57 0-3.814 1.882-5.957 4.276-5.957 1.796 0 3.036 1.158 3.507 2.872.084.386.127.813.127 1.199v3.085zm32.94-11.612h-6.499v12.47c0 .556-.086 1.028-.257 1.414-.386 1.029-1.454 2.27-3.25 2.27-2.31 0-3.293-1.842-3.293-4.885v-11.27h-6.5v12.299c0 6.47 3.079 9.128 7.356 9.128 3.762 0 5.73-2.143 6.542-3.428h.128l.3 2.956h5.644c-.085-1.757-.17-3.985-.17-6.727V31.695zm16.09-.472c-7.269 0-10.56 5.87-10.56 11.185 0 6.556 4.062 10.67 11.16 10.67 2.823 0 5.43-.429 7.57-1.328l-.857-4.414c-1.753.6-3.549.9-5.772.9-3.036 0-5.73-1.286-5.9-3.987h13.469c.085-.47.214-1.455.214-2.57 0-5.185-2.566-10.456-9.323-10.456zm-4.403 8.571c.17-1.715 1.282-4.242 4.02-4.242 2.993 0 3.677 2.656 3.677 4.242h-7.697zm31.484-8.571c-3.506 0-5.601 2.015-6.456 3.386h-.13l-.297-2.914h-5.646c.086 1.886.172 4.07.172 6.685V52.65h6.5V40.565c0-.6.042-1.2.213-1.628.47-1.2 1.539-2.443 3.335-2.443 2.352 0 3.293 1.843 3.293 4.543v11.612h6.5V40.265c0-6.17-3.207-9.042-7.484-9.042zm31.614 9.042c0-4.97-2.18-9.084-9.15-9.084-3.806 0-6.67 1.072-8.125 1.885l1.198 4.2c1.368-.858 3.634-1.585 5.772-1.585 3.207 0 3.806 1.585 3.806 2.742v.257c-7.398 0-12.272 2.57-12.272 8.012 0 3.344 2.522 6.429 6.756 6.429 2.48 0 4.618-.9 5.987-2.572h.127l.385 2.1h5.86c-.258-1.158-.344-3.085-.344-5.056v-7.328zm-6.285 4.756c0 .386-.043.772-.13 1.115-.427 1.328-1.795 2.4-3.377 2.4-1.453 0-2.566-.815-2.566-2.486 0-2.486 2.652-3.3 6.073-3.3v2.271zm32.681-13.326h-6.499v12.47c0 .556-.086 1.028-.256 1.414-.386 1.029-1.455 2.27-3.25 2.27-2.31 0-3.294-1.842-3.294-4.885v-11.27h-6.499v12.299c0 6.47 3.078 9.128 7.356 9.128 3.762 0 5.73-2.143 6.542-3.428h.127l.3 2.956h5.644c-.084-1.757-.17-3.985-.17-6.727V31.695zM75.26 102.245h-4v30.664h4v-30.663zm8.81 30.664h4.001V119.67c0-.683.09-1.365.273-1.866.727-2.229 2.772-4.094 5.363-4.094 3.772 0 5.09 2.957 5.09 6.505v12.694h4v-13.103c0-7.551-4.727-9.372-7.772-9.372-3.636 0-6.182 2.047-7.272 4.095h-.09l-.229-3.64h-3.545c.136 1.82.182 3.64.182 5.96v16.06zm31.576-2.501c-2 0-4.09-.82-5.317-1.547l-.954 3.001c1.545.91 3.773 1.546 6.181 1.546 5.136 0 8.181-2.728 8.181-6.64 0-3.277-2-5.187-5.773-6.597-2.863-1.138-4.135-1.957-4.135-3.777 0-1.638 1.272-3.002 3.636-3.002 2.045 0 3.636.773 4.5 1.318l.953-2.912c-1.181-.773-3.135-1.364-5.363-1.364-4.681 0-7.59 2.912-7.59 6.46 0 2.64 1.865 4.777 5.863 6.233 2.91 1.093 4.045 2.094 4.045 4.005 0 1.864-1.362 3.276-4.227 3.276zm15.72-4.458c0 2.59.454 4.547 1.544 5.777.955 1.044 2.454 1.681 4.319 1.681 1.545 0 2.772-.272 3.544-.545l-.18-3.046c-.592.18-1.228.272-2.32.272-2.226 0-3-1.549-3-4.277v-11.875H141v-3.048h-5.727v-5.277l-3.909 1.182v4.095h-3.41v3.048h3.41v12.013zm15.717 6.96h4v-22.02h-4v22.02zm1.909-25.752c1.59 0 2.546-1.091 2.546-2.457 0-1.41-1.001-2.501-2.456-2.501-1.499 0-2.498 1.137-2.498 2.501 0 1.366.954 2.457 2.408 2.457zm11.22 18.792c0 2.59.455 4.547 1.546 5.777.955 1.044 2.454 1.681 4.318 1.681 1.545 0 2.773-.272 3.545-.545l-.181-3.046c-.591.18-1.228.272-2.32.272-2.226 0-2.999-1.549-2.999-4.277v-11.875h5.728v-3.048h-5.728v-5.277l-3.908 1.182v4.095h-3.41v3.048h3.41v12.013zm23.173 7.458c3.908 0 6.272-2.318 7.272-4.093h.09l.228 3.594h3.544c-.136-1.73-.18-3.73-.18-6.05v-15.97h-4v13.467c0 .773-.137 1.502-.364 2.047-.727 1.819-2.591 3.686-5.272 3.686-3.59 0-4.909-2.866-4.909-7.052v-12.148h-4v12.876c0 7.69 4.137 9.643 7.59 9.643zm20.078-7.458c0 2.59.454 4.547 1.544 5.777.956 1.044 2.454 1.681 4.32 1.681 1.544 0 2.772-.272 3.543-.545l-.182-3.046c-.59.18-1.226.272-2.318.272-2.226 0-2.999-1.549-2.999-4.277v-11.875h5.727v-3.048h-5.727v-5.277l-3.908 1.182v4.095h-3.41v3.048h3.41v12.013zm31.701 7.458c3.909 0 6.273-2.318 7.273-4.093h.09l.228 3.594h3.544c-.136-1.73-.18-3.73-.18-6.05v-15.97h-4v13.467c0 .773-.137 1.502-.364 2.047-.727 1.819-2.592 3.686-5.272 3.686-3.59 0-4.909-2.866-4.909-7.052v-12.148h-4v12.876c0 7.69 4.137 9.643 7.59 9.643zm19.169-.499h4V119.67c0-.683.09-1.365.273-1.866.727-2.229 2.772-4.094 5.363-4.094 3.772 0 5.09 2.957 5.09 6.505v12.694h4v-13.103c0-7.551-4.727-9.372-7.772-9.372-3.636 0-6.182 2.047-7.272 4.095h-.09l-.229-3.64h-3.545c.136 1.82.182 3.64.182 5.96v16.06zm28.713-25.75c1.59 0 2.546-1.092 2.546-2.458 0-1.41-1.002-2.501-2.456-2.501-1.499 0-2.499 1.137-2.499 2.501 0 1.366.954 2.457 2.409 2.457zm-1.91 25.75h4v-22.02h-4v22.02zm21.675 0l8.636-22.02h-4.181l-4.273 12.33c-.727 2.048-1.364 3.867-1.863 5.685h-.136c-.455-1.818-1.046-3.637-1.773-5.685l-4.318-12.33h-4.273l8.363 22.02h3.818zm22.761.5c3.5 0 5.954-.772 7.363-1.41l-.727-2.865c-1.455.637-3.228 1.136-6.09 1.136-4.045 0-7.455-2.23-7.545-7.642h15.453c.09-.456.137-1.047.137-1.866 0-4.05-1.865-10.328-9.091-10.328-6.409 0-10.317 5.187-10.317 11.83 0 6.64 4.044 11.144 10.817 11.144zm-.819-20.109c4.5 0 5.592 3.959 5.546 6.46h-11.68c.317-2.775 2.044-6.46 6.134-6.46zm15.942 19.61h4v-11.738c0-.638.045-1.32.136-1.866.545-3.002 2.545-5.095 5.363-5.095.545 0 .954 0 1.364.09v-3.776c-.364-.045-.682-.09-1.091-.09-2.682 0-5.136 1.864-6.136 4.822h-.136l-.183-4.368h-3.5c.137 2.047.183 4.277.183 6.87v15.15zm21.218-2.502c-2 0-4.09-.82-5.317-1.547l-.955 3.001c1.546.91 3.773 1.546 6.182 1.546 5.136 0 8.181-2.728 8.181-6.64 0-3.277-2-5.187-5.773-6.597-2.863-1.138-4.135-1.957-4.135-3.777 0-1.638 1.272-3.002 3.636-3.002 2.045 0 3.636.773 4.5 1.318l.953-2.912c-1.18-.773-3.135-1.364-5.363-1.364-4.682 0-7.59 2.912-7.59 6.46 0 2.64 1.864 4.777 5.863 6.233 2.909 1.093 4.045 2.094 4.045 4.005 0 1.864-1.363 3.276-4.227 3.276zm16.717-23.25c1.59 0 2.546-1.091 2.546-2.457 0-1.41-1.001-2.501-2.455-2.501-1.5 0-2.499 1.137-2.499 2.501 0 1.366.954 2.457 2.408 2.457zm-1.909 25.751h4v-22.02h-4v22.02zm13.13-6.96c0 2.591.455 4.548 1.545 5.778.955 1.044 2.454 1.681 4.319 1.681 1.544 0 2.772-.272 3.544-.545l-.18-3.046c-.592.18-1.229.272-2.32.272-2.226 0-3-1.549-3-4.277v-11.875h5.728v-3.048h-5.727v-5.277l-3.909 1.182v4.095h-3.41v3.048h3.41v12.013zm13.992 1.137c0 3.184 2.272 6.322 6.727 6.322 3.136 0 5.5-1.546 6.727-3.273h.138l.316 2.774h3.591c-.227-1.5-.318-3.368-.318-5.278v-8.233c0-4.368-1.635-8.964-8.363-8.964-2.774 0-5.454.773-7.273 1.91l.91 2.686c1.545-1.047 3.681-1.638 5.773-1.638 4.5-.046 5 3.275 5 5.049v.456c-8.5-.046-13.228 2.866-13.228 8.189zm13.317-5.415v3.823c0 .364-.043.817-.181 1.273-.637 1.865-2.499 3.686-5.408 3.686-2 0-3.728-1.184-3.728-3.823 0-4.276 4.953-5.05 9.317-4.959zm11.899 11.238h3.999v-22.02h-4v22.02zm1.908-25.75c1.592 0 2.547-1.092 2.547-2.458 0-1.41-1.001-2.501-2.456-2.501-1.5 0-2.498 1.137-2.498 2.501 0 1.366.952 2.457 2.407 2.457zm10.312 25.75h4v-11.737c0-.638.045-1.32.137-1.866.545-3.002 2.545-5.095 5.362-5.095.545 0 .955 0 1.362.09v-3.776c-.361-.045-.68-.09-1.09-.09-2.682 0-5.135 1.864-6.136 4.822h-.135l-.183-4.368h-3.5c.138 2.047.183 4.277.183 6.87v15.15zm25.22.5c3.499 0 5.952-.772 7.36-1.41l-.726-2.865c-1.454.637-3.227 1.136-6.09 1.136-4.045 0-7.456-2.23-7.545-7.642h15.454c.089-.456.135-1.047.135-1.866 0-4.05-1.865-10.328-9.09-10.328-6.41 0-10.317 5.187-10.317 11.83 0 6.64 4.045 11.144 10.818 11.144zm-.821-20.109c4.5 0 5.59 3.959 5.545 6.46h-11.679c.316-2.775 2.043-6.46 6.134-6.46zM167.163 215.28c6.635 0 11.59-3.82 11.59-13.238v-17.924h-4v18.196c0 6.736-2.955 9.736-7.454 9.736-4.09 0-7.136-2.911-7.136-9.736v-18.196h-3.999v18.061c0 9.553 4.726 13.102 10.999 13.102zm19.438-.499h4v-13.239c0-.682.09-1.365.273-1.867.727-2.23 2.772-4.094 5.363-4.094 3.772 0 5.09 2.958 5.09 6.506v12.694h4v-13.104c0-7.55-4.727-9.372-7.772-9.372-3.636 0-6.182 2.048-7.272 4.097h-.092l-.227-3.64h-3.545c.137 1.818.182 3.64.182 5.958v16.061zm28.26-25.752c1.59 0 2.545-1.09 2.545-2.455 0-1.412-1-2.502-2.455-2.502-1.5 0-2.499 1.136-2.499 2.502s.954 2.455 2.408 2.455zm-1.91 25.752h4v-22.02h-4v22.02zm21.22 0l8.636-22.02h-4.181l-4.273 12.33c-.727 2.048-1.364 3.867-1.863 5.686h-.136c-.455-1.82-1.046-3.638-1.773-5.686l-4.318-12.33h-4.273l8.363 22.02h3.818zm22.307.5c3.5 0 5.954-.772 7.362-1.409l-.727-2.866c-1.454.637-3.227 1.136-6.09 1.136-4.045 0-7.455-2.229-7.545-7.642h15.454c.09-.456.136-1.047.136-1.868 0-4.047-1.863-10.327-9.09-10.327-6.41 0-10.318 5.187-10.318 11.83 0 6.642 4.045 11.146 10.818 11.146zm-.82-20.11c4.5 0 5.592 3.959 5.546 6.46h-11.68c.317-2.774 2.045-6.46 6.135-6.46zm15.489 19.61h4v-11.738c0-.637.045-1.32.136-1.865.545-3.003 2.545-5.095 5.363-5.095.545 0 .954 0 1.363.09v-3.776c-.363-.046-.681-.092-1.09-.092-2.682 0-5.136 1.865-6.136 4.822h-.136l-.183-4.366h-3.5c.138 2.046.183 4.278.183 6.87v15.15zm20.763-2.501c-2 0-4.089-.82-5.317-1.546l-.955 3c1.546.91 3.774 1.547 6.182 1.547 5.136 0 8.181-2.729 8.181-6.641 0-3.277-1.999-5.187-5.773-6.598-2.863-1.136-4.135-1.957-4.135-3.776 0-1.638 1.272-3.003 3.636-3.003 2.045 0 3.636.774 4.5 1.32l.953-2.912c-1.18-.775-3.135-1.366-5.363-1.366-4.681 0-7.59 2.912-7.59 6.46 0 2.64 1.865 4.777 5.863 6.234 2.91 1.093 4.045 2.094 4.045 4.005 0 1.864-1.362 3.276-4.227 3.276zm16.264-23.25c1.591 0 2.546-1.09 2.546-2.456 0-1.412-1-2.502-2.455-2.502-1.5 0-2.499 1.136-2.499 2.502s.954 2.455 2.408 2.455zm-1.909 25.751h4v-22.02h-4v22.02zm12.675-6.96c0 2.591.455 4.548 1.545 5.778.956 1.045 2.454 1.682 4.32 1.682 1.544 0 2.772-.273 3.543-.546l-.182-3.046c-.59.18-1.226.272-2.318.272-2.226 0-2.999-1.549-2.999-4.277v-11.876h5.727v-3.047h-5.727v-5.278l-3.909 1.182v4.096h-3.409v3.047h3.41v12.014zm24.22 7.46c3.5 0 5.953-.772 7.362-1.409l-.727-2.866c-1.455.637-3.228 1.136-6.09 1.136-4.045 0-7.455-2.229-7.545-7.642h15.453c.09-.456.137-1.047.137-1.868 0-4.047-1.865-10.327-9.091-10.327-6.409 0-10.317 5.187-10.317 11.83 0 6.642 4.044 11.146 10.817 11.146zm-.82-20.11c4.5 0 5.591 3.959 5.546 6.46h-11.68c.317-2.774 2.044-6.46 6.134-6.46zm6.455-11.92h-4.363l-4 6.507h2.818l5.545-6.506zm26.073 32.03c3.59 0 6.227-1.865 7.409-4.32h.136l.182 3.82h3.546c-.092-1.5-.182-3.729-.182-5.685V182.48h-3.955v13.147h-.09c-1-1.73-3.227-3.322-6.637-3.322-5.317 0-9.908 4.458-9.862 11.785 0 6.687 4.136 11.19 9.453 11.19zm1.182-19.835c3 0 5.181 2.092 5.772 4.593.136.502.182 1.185.182 1.684v3.821c0 .637-.046 1.185-.182 1.73-.727 2.958-3.181 4.776-5.862 4.776-4.273 0-6.5-3.683-6.5-8.144 0-4.822 2.454-8.46 6.59-8.46zm26.942 19.835c3.5 0 5.954-.772 7.362-1.409l-.727-2.866c-1.455.637-3.227 1.136-6.09 1.136-4.045 0-7.455-2.229-7.545-7.642h15.452c.092-.456.138-1.047.138-1.868 0-4.047-1.863-10.327-9.091-10.327-6.409 0-10.317 5.187-10.317 11.83 0 6.642 4.045 11.146 10.818 11.146zm-.82-20.11c4.5 0 5.592 3.959 5.546 6.46h-11.68c.317-2.774 2.045-6.46 6.135-6.46zm30.644 16.79c-2.725 0-5.27-.866-7.043-2.002l-1.047 3.322c1.638 1.09 4.863 2 7.817 2 7.227 0 10.683-4.14 10.683-8.87 0-4.504-2.59-7.009-7.774-9.011-4.225-1.635-6.09-3.047-6.09-5.912 0-2.094 1.592-4.596 5.772-4.596 2.774 0 4.82.863 5.774 1.454l1.09-3.23c-1.32-.771-3.637-1.5-6.727-1.5-5.955 0-9.908 3.549-9.908 8.325 0 4.277 3.09 6.916 8.09 8.735 4.136 1.55 5.771 3.23 5.771 6.053 0 3.092-2.363 5.232-6.408 5.232zm17.625-4.14c0 2.591.456 4.548 1.546 5.778.956 1.045 2.453 1.682 4.318 1.682 1.546 0 2.774-.273 3.545-.546l-.18-3.046c-.591.18-1.228.272-2.321.272-2.226 0-2.998-1.549-2.998-4.277v-11.876h5.726v-3.047h-5.726v-5.278l-3.91 1.182v4.096h-3.408v3.047h3.408v12.014zm15.264 6.96h4.002v-11.738c0-.637.043-1.32.135-1.865.545-3.003 2.545-5.095 5.364-5.095.545 0 .953 0 1.363.09v-3.776c-.364-.046-.683-.092-1.09-.092-2.682 0-5.138 1.865-6.136 4.822h-.138l-.18-4.366h-3.5c.137 2.046.18 4.278.18 6.87v15.15zm14.04-5.823c0 3.184 2.272 6.323 6.727 6.323 3.135 0 5.499-1.547 6.727-3.274h.135l.318 2.774h3.592c-.23-1.5-.319-3.367-.319-5.278v-8.233c0-4.37-1.638-8.965-8.365-8.965-2.771 0-5.453.775-7.272 1.91l.91 2.686c1.546-1.047 3.683-1.638 5.774-1.638 4.498-.046 4.997 3.276 4.997 5.049v.456c-8.497-.046-13.224 2.866-13.224 8.19zm13.316-5.416v3.824c0 .364-.046.817-.18 1.274-.637 1.864-2.502 3.686-5.41 3.686-2 0-3.727-1.185-3.727-3.824 0-4.277 4.954-5.05 9.317-4.96zm16.214 8.738c-2 0-4.088-.82-5.316-1.546l-.955 3c1.546.91 3.772 1.547 6.182 1.547 5.135 0 8.181-2.729 8.181-6.641 0-3.277-1.999-5.187-5.774-6.598-2.863-1.136-4.134-1.957-4.134-3.776 0-1.638 1.27-3.003 3.635-3.003 2.045 0 3.637.774 4.5 1.32l.953-2.912c-1.179-.775-3.135-1.366-5.362-1.366-4.681 0-7.59 2.912-7.59 6.46 0 2.64 1.865 4.777 5.864 6.234 2.908 1.093 4.044 2.094 4.044 4.005 0 1.864-1.362 3.276-4.228 3.276zm17.809-1.093h.092c1.68 2.866 4.228 4.094 7.41 4.094 4.908 0 9.908-3.91 9.908-11.782 0-6.644-3.818-11.194-9.318-11.194-3.545 0-6.09 1.546-7.501 4.005h-.09v-13.83h-3.955v26.616c0 1.956-.09 4.185-.18 5.685h3.407l.227-3.594zm.502-9.145c0-.637.089-1.182.226-1.684.818-3.001 3.362-4.912 6.045-4.912 4.317 0 6.592 3.776 6.592 8.188 0 5.051-2.456 8.462-6.681 8.462-2.91 0-5.273-1.91-6.002-4.684-.134-.456-.18-.956-.18-1.458v-3.912zm31.983 13.239c5.272 0 10.952-3.549 10.952-11.693 0-6.687-4.271-11.283-10.588-11.283-6.044 0-10.91 4.323-10.91 11.647 0 6.962 4.636 11.329 10.546 11.329zm.272-19.972c4.728 0 6.59 4.684 6.59 8.416 0 4.96-2.863 8.555-6.682 8.555-3.907 0-6.635-3.64-6.635-8.463 0-4.142 2.046-8.508 6.727-8.508zm24.307 19.972c3.907 0 6.27-2.318 7.272-4.094h.089l.23 3.594h3.542c-.135-1.73-.18-3.729-.18-6.05v-15.97h-4v13.466c0 .775-.137 1.503-.364 2.048-.726 1.819-2.59 3.686-5.273 3.686-3.588 0-4.908-2.865-4.908-7.054v-12.146h-3.999v12.875c0 7.691 4.137 9.645 7.59 9.645zm18.712-.5h4.002v-11.738c0-.637.043-1.32.135-1.865.545-3.003 2.544-5.095 5.364-5.095.545 0 .953 0 1.363.09v-3.776c-.365-.046-.683-.092-1.09-.092-2.683 0-5.138 1.865-6.136 4.822h-.138l-.18-4.366h-3.5c.137 2.046.18 4.278.18 6.87v15.15zm23.403-.091c3.408 0 5.818-1.638 7-3.684h.088v2.41c0 5.597-2.997 7.734-7.088 7.734-2.728 0-5-.818-6.455-1.773l-1 3.092c1.772 1.185 4.68 1.822 7.317 1.822 2.774 0 5.864-.683 8.044-2.64 2.091-1.956 3.138-5.005 3.138-10.1v-12.785c0-2.64.046-4.458.181-6.005h-3.546l-.135 3.322h-.091c-1.002-1.821-3.047-3.778-6.862-3.778-5.092 0-9.955 4.186-9.955 11.647 0 6.099 3.908 10.738 9.364 10.738zm1.225-19.29c2.955 0 4.865 1.911 5.59 4.275.184.502.227 1.093.227 1.776v3.958c0 .683-.089 1.455-.315 2.138-.82 2.547-3.047 4.096-5.545 4.096-4.275 0-6.5-3.594-6.5-7.918 0-5.094 2.727-8.324 6.543-8.324zm-126.4-61.992c3.588 0 6.225-1.864 7.407-4.32h.137l.181 3.821h3.546c-.092-1.5-.181-3.73-.181-5.686v-26.615h-3.956v13.147h-.089c-1.001-1.729-3.227-3.32-6.638-3.32-5.316 0-9.908 4.457-9.862 11.782 0 6.687 4.136 11.191 9.455 11.191zm1.182-19.834c2.997 0 5.18 2.093 5.771 4.594.135.5.181 1.184.181 1.684v3.821c0 .637-.046 1.184-.18 1.729-.73 2.957-3.182 4.776-5.864 4.776-4.272 0-6.5-3.683-6.5-8.143 0-4.822 2.455-8.46 6.592-8.46zm27.393 19.834c3.5 0 5.955-.771 7.364-1.408l-.729-2.866c-1.454.637-3.227 1.136-6.09 1.136-4.045 0-7.453-2.23-7.545-7.642h15.454c.091-.456.137-1.047.137-1.866 0-4.05-1.864-10.328-9.09-10.328-6.41 0-10.32 5.187-10.32 11.83 0 6.64 4.046 11.144 10.819 11.144zm-.818-20.108c4.498 0 5.591 3.959 5.545 6.46H522.71c.318-2.775 2.045-6.46 6.136-6.46zm23.85 12.65c0 2.59.454 4.547 1.544 5.777.955 1.044 2.455 1.681 4.32 1.681 1.543 0 2.771-.272 3.543-.545l-.18-3.046c-.592.18-1.229.272-2.319.272-2.226 0-3-1.549-3-4.277v-11.875h5.728v-3.048h-5.728v-5.277l-3.908 1.182v4.095h-3.41v3.048h3.41v12.013zm24.218 7.458c3.5 0 5.955-.771 7.364-1.408l-.729-2.866c-1.454.637-3.227 1.136-6.09 1.136-4.045 0-7.453-2.23-7.545-7.642h15.454c.092-.456.138-1.047.138-1.866 0-4.05-1.865-10.328-9.091-10.328-6.409 0-10.319 5.187-10.319 11.83 0 6.64 4.045 11.144 10.818 11.144zm-.818-20.108c4.498 0 5.591 3.959 5.545 6.46h-11.68c.318-2.775 2.045-6.46 6.135-6.46zm24.852 20.108c2.952 0 5.272-.771 6.316-1.273l-.682-3.001c-1.136.499-2.637 1.044-4.909 1.044-4.363 0-7.636-3.138-7.636-8.233 0-4.55 2.728-8.326 7.774-8.326 2.18 0 3.68.546 4.636 1.047l.91-3.048c-1.094-.593-3.182-1.184-5.546-1.184-7.183 0-11.819 4.959-11.819 11.738 0 6.732 4.318 11.236 10.956 11.236zm16.125-13.784c0-.727.043-1.32.272-1.91.772-2.139 2.771-3.96 5.362-3.96 3.772 0 5.092 2.958 5.092 6.507v12.648h3.999v-13.103c0-7.551-4.728-9.372-7.683-9.372a8.198 8.198 0 0 0-4.09 1.092 7.564 7.564 0 0 0-2.864 2.866h-.088v-13.784h-4.002v32.301h4.002v-13.285zm22.35 13.285h3.998V119.67c0-.683.092-1.365.273-1.866.729-2.229 2.774-4.094 5.364-4.094 3.773 0 5.09 2.957 5.09 6.505v12.694h3.998v-13.103c0-7.551-4.724-9.372-7.77-9.372-3.635 0-6.183 2.047-7.273 4.095h-.092l-.226-3.64h-3.546c.138 1.82.184 3.64.184 5.96v16.06zm35.302.5c5.272 0 10.952-3.55 10.952-11.692 0-6.687-4.271-11.283-10.588-11.283-6.044 0-10.91 4.322-10.91 11.647 0 6.961 4.636 11.327 10.546 11.327zm.272-19.973c4.728 0 6.59 4.686 6.59 8.417 0 4.96-2.864 8.555-6.682 8.555-3.907 0-6.635-3.64-6.635-8.463 0-4.141 2.045-8.509 6.727-8.509zm20.853-12.828h-4.002v32.301h4.002v-32.301zm16.81 32.8c5.273 0 10.953-3.548 10.953-11.691 0-6.687-4.272-11.283-10.589-11.283-6.044 0-10.91 4.322-10.91 11.647 0 6.961 4.637 11.327 10.546 11.327zm.273-19.972c4.727 0 6.589 4.686 6.589 8.417 0 4.96-2.863 8.555-6.681 8.555-3.907 0-6.636-3.64-6.636-8.463 0-4.141 2.046-8.509 6.728-8.509zm24.621 19.381c3.408 0 5.818-1.638 7-3.683h.092v2.41c0 5.596-3 7.734-7.092 7.734-2.728 0-5-.818-6.454-1.773l-.998 3.092c1.772 1.185 4.681 1.822 7.318 1.822 2.77 0 5.86-.683 8.043-2.64 2.092-1.956 3.136-5.005 3.136-10.1v-12.784c0-2.64.046-4.458.184-6.006h-3.546l-.138 3.322h-.092c-.998-1.82-3.043-3.777-6.862-3.777-5.089 0-9.954 4.186-9.954 11.647 0 6.098 3.91 10.736 9.363 10.736zm1.228-19.289c2.955 0 4.863 1.91 5.591 4.276.181.5.227 1.093.227 1.774v3.96c0 .682-.092 1.454-.318 2.136-.818 2.548-3.047 4.097-5.546 4.097-4.271 0-6.5-3.595-6.5-7.918 0-5.095 2.728-8.325 6.546-8.325zm17.258 19.381h4.002v-22.02h-4.002v22.02zm1.91-25.75c1.59 0 2.545-1.092 2.545-2.458 0-1.41-1-2.501-2.455-2.501-1.498 0-2.499 1.137-2.499 2.501 0 1.366.955 2.457 2.41 2.457zm19.086 26.25c3.5 0 5.953-.772 7.361-1.41l-.726-2.865c-1.454.637-3.227 1.136-6.09 1.136-4.045 0-7.455-2.23-7.544-7.642h15.453c.09-.456.135-1.047.135-1.866 0-4.05-1.865-10.328-9.09-10.328-6.41 0-10.317 5.187-10.317 11.83 0 6.64 4.045 11.144 10.818 11.144zm-.82-20.109c4.5 0 5.59 3.959 5.545 6.46h-11.678c.315-2.775 2.042-6.46 6.133-6.46zm-293.74-35.123V0H75.465v78.177H0v83.505h121.305V240H668.68v-78.318h143.162V78.177H482.476zM468.868 2.203h11.406v75.974h-11.406V2.203zm-37.563 0h35.36v75.974h-35.36V2.203zm-248.519 0h246.316v75.974H182.785V2.203zm-105.118 0h102.915v75.974H77.667V2.203zM34.94 159.48H2.203V80.38h32.738v79.098zm13.438 0H37.144V80.38h11.235v79.098zm618.097 78.318H123.508v-76.115h542.968v76.115zm143.162-78.318H50.582V80.38h759.056v79.098z" fill="#080806"/></svg>